<svg xmlns="http://www.w3.org/2000/svg" width="576" height="576">
<g transform="translate(189.5 119)">
  <path id="one" stroke="none"
  d="M-14.5 -95.6215
  a29 29 0 0 1 29 0
  l61.066641993582 35.256842193501
  a29 29 0 0 1 14.5 25.114736709749
  l0 70.513684387002
  a29 29 0 0 1 -14.5 25.114736709749
  l-61.066641993582 35.256842193501
  a29 29 0 0 1 -29 0
  l-61.066641993582 -35.256842193501
  a29 29 0 0 1 -14.5 -25.114736709749
  l1.1230431185007e-13 -70.513684387002
  a29 29 0 0 1 14.5 -25.114736709749">
  </path>
</g>
<g transform="translate(386.5 119)">
  <path id="two" stroke="none"
  d="M-14.5 -95.6215
  a29 29 0 0 1 29 0
  l61.066641993582 35.256842193501
  a29 29 0 0 1 14.5 25.114736709749
  l0 70.513684387002
  a29 29 0 0 1 -14.5 25.114736709749
  l-61.066641993582 35.256842193501
  a29 29 0 0 1 -29 0
  l-61.066641993582 -35.256842193501
  a29 29 0 0 1 -14.5 -25.114736709749
  l1.1230431185007e-13 -70.513684387002
  a29 29 0 0 1 14.5 -25.114736709749">
  </path>
</g>
<g transform="translate(485 288)">
  <path id="three" stroke="none"
  d="M-14.5 -95.6215
  a29 29 0 0 1 29 0
  l61.066641993582 35.256842193501
  a29 29 0 0 1 14.5 25.114736709749
  l0 70.513684387002
  a29 29 0 0 1 -14.5 25.114736709749
  l-61.066641993582 35.256842193501
  a29 29 0 0 1 -29 0
  l-61.066641993582 -35.256842193501
  a29 29 0 0 1 -14.5 -25.114736709749
  l1.1230431185007e-13 -70.513684387002
  a29 29 0 0 1 14.5 -25.114736709749">
  </path>
</g>
<g transform="translate(386.5 457)">
  <path id="four" stroke="none"
  d="M-14.5 -95.6215
  a29 29 0 0 1 29 0
  l61.066641993582 35.256842193501
  a29 29 0 0 1 14.5 25.114736709749
  l0 70.513684387002
  a29 29 0 0 1 -14.5 25.114736709749
  l-61.066641993582 35.256842193501
  a29 29 0 0 1 -29 0
  l-61.066641993582 -35.256842193501
  a29 29 0 0 1 -14.5 -25.114736709749
  l1.1230431185007e-13 -70.513684387002
  a29 29 0 0 1 14.5 -25.114736709749">
  </path>
</g>
<g transform="translate(189.5 457)">
  <path id="five" stroke="none"
  d="M-14.5 -95.6215
  a29 29 0 0 1 29 0
  l61.066641993582 35.256842193501
  a29 29 0 0 1 14.5 25.114736709749
  l0 70.513684387002
  a29 29 0 0 1 -14.5 25.114736709749
  l-61.066641993582 35.256842193501
  a29 29 0 0 1 -29 0
  l-61.066641993582 -35.256842193501
  a29 29 0 0 1 -14.5 -25.114736709749
  l1.1230431185007e-13 -70.513684387002
  a29 29 0 0 1 14.5 -25.114736709749">
  </path>
</g>
<g transform="translate(91 288)">
  <path id="six" stroke="none"
  d="M-14.5 -95.6215
  a29 29 0 0 1 29 0
  l61.066641993582 35.256842193501
  a29 29 0 0 1 14.5 25.114736709749
  l0 70.513684387002
  a29 29 0 0 1 -14.5 25.114736709749
  l-61.066641993582 35.256842193501
  a29 29 0 0 1 -29 0
  l-61.066641993582 -35.256842193501
  a29 29 0 0 1 -14.5 -25.114736709749
  l1.1230431185007e-13 -70.513684387002
  a29 29 0 0 1 14.5 -25.114736709749">
  </path>
</g>
<g transform="translate(288 288)">
  <path id="seven" stroke="none"
  d="M-14.5 -95.6215
  a29 29 0 0 1 29 0
  l61.066641993582 35.256842193501
  a29 29 0 0 1 14.5 25.114736709749
  l0 70.513684387002
  a29 29 0 0 1 -14.5 25.114736709749
  l-61.066641993582 35.256842193501
  a29 29 0 0 1 -29 0
  l-61.066641993582 -35.256842193501
  a29 29 0 0 1 -14.5 -25.114736709749
  l1.1230431185007e-13 -70.513684387002
  a29 29 0 0 1 14.5 -25.114736709749">
  </path>
</g>
</svg>
