<?xml version="1.0" encoding="utf-8"?>
<svg version="1.1" xmlns="http://www.w3.org/2000/svg" viewBox="0 0 313 273">

<g id="main">
	<path fill-rule="evenodd" clip-rule="evenodd" d="M165.43,64.436v55.75l28.278-27.396c0,0,0.119-12.263,2.834-14.979l27-28
		V5.437L165.43,64.436z"/>
	<path fill-rule="evenodd" clip-rule="evenodd" d="M156.557,258.89l42.085-41.031c2.737-2.737,2.811-3.574,0.066-6.318
		s-13.865-14.147-15.844-16.126s-1.974-2.229-4.736,0.534s-10.3,10.507-14.48,14.687s-8.091,3.782-8.091,3.782L156.557,258.89z"/>
	<path fill-rule="evenodd" clip-rule="evenodd" d="M228.688,225.874c-8.958-9.656-47.661-47.375-48.021-47.375
		s-18.627,19.357-18.627,19.357c-1.815,1.762-3.613,1.366-5.593,1.362v-16.906c2.841,0.021,3.718-1.269,5.142-3.708
		c1.266-2.167,1.641-3.375,1.641-6.668s0-18.464,0-22.493c0-6.425-1.103-5.965,3.447-10.515l96.99-98.751
		c1.204-1.164,2.33-2.038,4.174-2.028l42.956-0.009c0,0-76.39,77.851-77.442,79.652s0.312,5.167-0.021,6.75
		c0.292,1.625-16.403,17.991-21.117,22.705s-4.06,9.194,1.513,15.066c4.818,5.076,9.722,10.381,14.688,15.313
		c1.537,1.526,1.098,3.312,1.09,5.503c-0.048,12.75,0,38.25,0,38.25l0.014,4.497H228.688z"/>
	<path fill-rule="evenodd" clip-rule="evenodd" d="M242.859,174.982l43.061-43.744c2.565-2.565,2.433-5.445,2.433-9.286
		s0-26.31,0-29.248s-0.721-3.724-4.518,0.073s-56.5,56.345-57.75,57.596s-3.333,3.958-0.708,6.583L242.859,174.982z"/>
	<path fill-rule="evenodd" clip-rule="evenodd" d="M147.736,64.436v55.75L119.458,92.79c0,0-0.119-12.263-2.834-14.979l-27-28
		V5.437L147.736,64.436z"/>
	<path fill-rule="evenodd" clip-rule="evenodd" d="M156.609,258.89l-42.085-41.031c-2.737-2.737-2.811-3.574-0.066-6.318
		s13.865-14.147,15.844-16.126s1.974-2.229,4.736,0.534s10.3,10.507,14.48,14.687s8.091,3.782,8.091,3.782L156.609,258.89z"/>
	<path fill-rule="evenodd" clip-rule="evenodd" d="M84.479,225.874c8.958-9.656,47.661-47.375,48.021-47.375
		s18.627,19.357,18.627,19.357c1.815,1.762,3.613,1.366,5.593,1.362v-16.906c-2.841,0.021-3.718-1.269-5.142-3.708
		c-1.266-2.167-1.641-3.375-1.641-6.668s0-18.464,0-22.493c0-6.425,1.103-5.965-3.447-10.515l-96.99-98.751
		c-1.204-1.164-2.33-2.038-4.174-2.028L2.37,38.138c0,0,76.39,77.851,77.442,79.652s-0.312,5.167,0.021,6.75
		c-0.292,1.625,16.403,17.991,21.117,22.705s4.06,9.194-1.513,15.066c-4.818,5.076-9.722,10.381-14.688,15.313
		c-1.537,1.526-1.098,3.312-1.09,5.503c0.048,12.75,0,38.25,0,38.25l-0.014,4.497H84.479z"/>
	<path fill-rule="evenodd" clip-rule="evenodd" d="M70.307,174.982l-43.061-43.744c-2.565-2.565-2.433-5.445-2.433-9.286
		s0-26.31,0-29.248s0.721-3.724,4.518,0.073s56.5,56.345,57.75,57.596s3.333,3.958,0.708,6.583L70.307,174.982z"/>
</g>
</svg>
